<?xml version="1.0" encoding="utf-8"?>
<svg version="1.1" xmlns:xlink="http://www.w3.org/1999/xlink" width="117px" height="117px" xmlns="http://www.w3.org/2000/svg">
  <g transform="matrix(1 0 0 1 -831 -1444 )">
    <path d="M 18 45  L 18 98  L 36 98  L 36 45  L 18 45  Z M 34.048828125 35.3056640625  C 35.87695312500001 33.55371093749999  36.79101562500001 31.382812499999996  36.791015625 28.79296875  C 36.74023437500001 26.15234374999999  35.82617187500001 23.968749999999993  34.048828125 22.242187499999996  C 32.271484375 20.515625  29.91015625 19.65234375  26.96484375 19.65234375  C 24.019531250000004 19.65234375  21.620117187500004 20.515625  19.7666015625 22.242187499999996  C 17.913085937500004 23.968749999999993  16.986328125 26.15234374999999  16.986328125 28.79296875  C 16.986328125 31.382812499999996  17.887695312500004 33.55371093749999  19.6904296875 35.3056640625  C 21.4931640625 37.05761718750001  23.841796875 37.93359375  26.736328125 37.93359375  L 26.8125 37.93359375  C 29.808593750000004 37.93359375  32.22070312500001 37.05761718750001  34.048828125 35.3056640625  Z M 81 69.697265625  L 81 98  L 99 98  L 99 67.640625  C 98.947265625 59.820312499999986  97.09375 53.90429687499999  93.38671875 49.89257812499999  C 89.67968750000001 45.880859375  84.779296875 43.875  78.685546875 43.875  C 71.77929687500001 43.875  66.47265625 46.845703125  62.76562500000001 52.787109375  L 62.91796874999999 52.787109375  L 62.91796874999999 45  L 45.322265625 45  C 45.474609375 48.4453125  45.474609375 66.06640625  45.322265625 98  L 63 98  L 63 68.40234375000001  C 62.91796874999999 66.47265625  63.09570312500001 65.05078124999999  63.45117187500001 64.13671874999999  C 64.212890625 62.35937500000001  65.35546875 60.848632812499986  66.87890625 59.60449218750001  C 68.40234375 58.36035156249999  70.28125000000001 57.73828125000001  72.515625 57.73828125000001  C 78.40625000000001 57.73828125000001  81.3515625 61.72460937499999  81 69.697265625  Z M 110.5634765625 6.436523437500004  C 114.8544921875 10.72753906249999  117 15.894531249999984  117 21.9375  L 117 95.0625  C 117 101.10546874999999  114.8544921875 106.27246093750001  110.5634765625 110.5634765625  C 106.27246093750001 114.8544921875  101.10546875000001 117  95.0625 117  L 21.9375 117  C 15.89453125 117  10.727539062500002 114.8544921875  6.4365234375 110.5634765625  C 2.1455078124999996 106.27246093750001  0 101.10546874999999  0 95.0625  L 0 21.9375  C 0 15.894531249999984  2.1455078124999996 10.72753906249999  6.4365234375 6.436523437500004  C 10.727539062500002 2.145507812499993  15.89453125 0  21.9375 0  L 95.0625 0  C 101.10546875000001 0  106.27246093750001 2.145507812499993  110.5634765625 6.436523437500004  Z " fill-rule="nonzero" fill="#223635" stroke="none" transform="matrix(1 0 0 1 831 1444 )" />
  </g>
</svg>