<?xml version="1.0" encoding="utf-8"?>
<svg version="1.1" xmlns:xlink="http://www.w3.org/1999/xlink" width="120px" height="117px" xmlns="http://www.w3.org/2000/svg">
  <g transform="matrix(1 0 0 1 -416 -1444 )">
    <path d="M 29.8828125 8.039359573048701  C 39.075520833333336 2.6797865243495624  49.114583333333336 0  60 0  C 70.88541666666667 0  80.92447916666669 2.6797865243495624  90.1171875 8.039359573048701  C 99.30989583333333 13.398932621747825  106.58854166666669 20.670780520346895  111.953125 29.85490326884589  C 117.31770833333331 39.03902601734489  120 49.06871247498331  120 59.94396264176118  C 120 73.00466977985323  116.18489583333331 84.75150100066712  108.5546875 95.1844563042028  C 100.92447916666667 105.6174116077385  91.06770833333334 112.83722481654438  78.984375 116.84389593062042  C 77.57812500000001 117.10406937958639  76.53645833333334 116.9219479653102  75.859375 116.29753168779186  C 75.18229166666667 115.67311541027352  74.84375 114.89259506337558  74.84375 113.95597064709807  C 74.84375 113.79986657771848  74.85677083333334 111.80953969312876  74.8828125 107.98498999332888  C 74.90885416666667 104.16044029352902  74.921875 100.66110740493663  74.921875 97.4869913275517  C 74.921875 92.43962641761173  73.56770833333334 88.74516344229485  70.859375 86.40360240160106  C 73.828125 86.09139426284189  76.49739583333334 85.62308205470313  78.8671875 84.9986657771848  C 81.23697916666667 84.37424949966645  83.68489583333334 83.35957304869913  86.2109375 81.95463642428285  C 88.73697916666667 80.54969979986657  90.84635416666667 78.81954636424283  92.5390625 76.7641761174116  C 94.23177083333334 74.70880587058038  95.61197916666669 71.97698465643762  96.6796875 68.56871247498331  C 97.74739583333334 65.16044029352902  98.28125 61.24482988659105  98.28125 56.821881254169455  C 98.28125 50.62975316877918  96.22395833333334 45.270180120080056  92.109375 40.74316210807205  C 94.03645833333333 36.00800533689126  93.828125 30.70046697798532  91.484375 24.820547031354234  C 90.02604166666667 24.352234823215483  87.91666666666667 24.63842561707804  85.15625 25.679119412941965  C 82.39583333333334 26.719813208805864  80 27.864576384256175  77.96875 29.11340893929286  L 75 30.986657771847902  C 70.15625000000001 29.63375583722481  65.15625000000001 28.957304869913276  60 28.957304869913276  C 54.84375 28.957304869913276  49.84375 29.63375583722481  45 30.986657771847902  C 44.16666666666667 30.41427618412274  43.05989583333334 29.711807871914594  41.6796875 28.879252835223475  C 40.29947916666667 28.046697798532346  38.12500000000001 27.045030020013346  35.15625 25.874249499666448  C 32.1875 24.70346897931955  29.97395833333334 24.352234823215483  28.515625 24.820547031354234  C 26.171875 30.70046697798532  25.963541666666668 36.00800533689126  27.890625 40.74316210807205  C 23.77604166666667 45.270180120080056  21.71875 50.62975316877918  21.71875 56.821881254169455  C 21.71875 61.24482988659105  22.25260416666667 65.14743162108071  23.3203125 68.52968645763843  C 24.388020833333332 71.91194129419613  25.755208333333336 74.64376250833888  27.421875 76.72515010006671  C 29.08854166666667 78.80653769179452  31.184895833333336 80.54969979986657  33.7109375 81.95463642428285  C 36.236979166666664 83.35957304869913  38.684895833333336 84.37424949966645  41.0546875 84.9986657771848  C 43.42447916666667 85.62308205470313  46.09375 86.09139426284189  49.0625 86.40360240160106  C 47.03125 88.27685123415611  45.75520833333334 90.95663775850566  45.234375 94.44296197464976  C 44.140625 94.96330887258172  42.96875 95.35356904603069  41.71875 95.61374249499666  C 40.46875 95.87391594396264  38.984375 96.00400266844562  37.265625 96.00400266844562  C 35.54687500000001 96.00400266844562  33.84114583333334 95.44462975316878  32.1484375 94.32588392261508  C 30.45572916666667 93.20713809206138  29.010416666666668 91.58105403602401  27.8125 89.447631754503  C 26.82291666666667 87.78252168112073  25.559895833333332 86.42961974649766  24.0234375 85.38892595063376  C 22.48697916666667 84.34823215476983  21.19791666666667 83.72381587725148  20.15625 83.51567711807871  L 18.59375 83.28152101400933  C 17.5 83.28152101400933  16.744791666666668 83.39859906604401  16.328125 83.63275517011341  C 15.911458333333336 83.86691127418278  15.781250000000002 84.16611074049366  15.9375 84.53035356904603  C 16.09375 84.89459639759839  16.328125 85.25883922615077  16.640625 85.62308205470313  C 16.953125000000004 85.9873248832555  17.291666666666668 86.29953302201467  17.65625 86.55970647098066  L 18.203125 86.94996664442962  C 19.348958333333332 87.47031354236157  20.481770833333336 88.4589726484323  21.6015625 89.91594396264176  C 22.72135416666667 91.37291527685122  23.54166666666667 92.6997998665777  24.0625 93.89659773182122  L 24.84375 95.69179452968646  C 25.520833333333336 97.66911274182787  26.666666666666668 99.26917945296864  28.28125 100.49199466310874  C 29.89583333333334 101.71480987324884  31.640625000000007 102.49533022014677  33.515625 102.83355570380253  C 35.39062500000001 103.1717811874583  37.20052083333334 103.35390260173449  38.9453125 103.37991994663109  C 40.690104166666664 103.40593729152768  42.13541666666667 103.3148765843896  43.28125 103.10673782521681  L 45.078125 102.79452968645765  C 45.078125 104.77184789859906  45.09114583333334 107.07438292194796  45.1171875 109.70213475650434  C 45.143229166666664 112.32988659106071  45.15625 113.74783188792527  45.15625 113.95597064709807  C 45.15625 114.89259506337558  44.81770833333334 115.67311541027352  44.140625 116.29753168779186  C 43.46354166666667 116.9219479653102  42.421875 117.10406937958639  41.015625 116.84389593062042  C 28.93229166666667 112.83722481654438  19.075520833333336 105.6174116077385  11.4453125 95.1844563042028  C 3.815104166666666 84.75150100066712  0 73.00466977985323  0 59.94396264176118  C 0 49.06871247498331  2.682291666666666 39.03902601734489  8.046875 29.85490326884589  C 13.411458333333336 20.670780520346895  20.690104166666668 13.398932621747825  29.8828125 8.039359573048701  Z M 21.71875 86.24749833222148  C 22.1875 86.55970647098066  22.52604166666667 86.50767178118745  22.734375 86.09139426284189  C 22.890625 85.72715143428952  22.708333333333336 85.41494329553035  22.1875 85.15476984656438  C 21.66666666666667 84.9986657771848  21.328125 85.05070046697797  21.171875 85.31087391594396  C 21.015625 85.67511674449632  21.19791666666667 85.9873248832555  21.71875 86.24749833222148  Z M 23.90625 88.51100733822548  C 24.427083333333336 89.03135423615743  24.84375 89.10940627084723  25.15625 88.74516344229485  C 25.520833333333336 88.48498999332888  25.46875 88.06871247498333  25 87.49633088725817  C 24.47916666666667 87.02801867911941  24.0625 86.94996664442962  23.75 87.2621747831888  C 23.385416666666668 87.52234823215476  23.4375 87.93862575050032  23.90625 88.51100733822548  Z M 26.171875 91.711140760507  C 26.640625 92.38759172781855  27.083333333333332 92.56971314209473  27.5 92.25750500333555  C 27.96875 91.89326217478319  27.96875 91.39893262174783  27.5 90.77451634422948  C 27.083333333333332 90.09806537691794  26.640625 89.94196130753835  26.171875 90.30620413609073  C 25.703125 90.5663775850567  25.703125 91.03468979319545  26.171875 91.711140760507  Z M 29.21875 95.3015343562375  C 29.84375 95.92595063375585  30.364583333333336 96.00400266844562  30.781250000000004 95.53569046030688  C 31.197916666666668 95.11941294196131  31.093750000000004 94.62508338892594  30.46875 94.0527018012008  C 29.84375 93.42828552368245  29.32291666666667 93.35023348899266  28.90625 93.81854569713141  C 28.4375 94.23482321547698  28.541666666666668 94.72915276851234  29.21875 95.3015343562375  Z M 33.75 97.95530353569046  C 34.53125 98.26751167444964  35.02604166666667 98.11140760507004  35.234375 97.4869913275517  C 35.390625 96.91460973982656  35.052083333333336 96.49833222148098  34.21875 96.238158772515  C 33.43750000000001 96.03002001334222  32.942708333333336 96.21214142761842  32.734375 96.78452301534355  C 32.52604166666667 97.35690460306871  32.864583333333336 97.74716477651768  33.75 97.95530353569046  Z M 38.90625 98.73582388258839  C 39.739583333333336 98.73582388258839  40.15625 98.4496330887258  40.15625 97.87725150100067  C 40.15625 97.20080053368912  39.71354166666667 96.91460973982656  38.828125 97.01867911941294  C 37.994791666666664 97.01867911941294  37.578125 97.30486991327552  37.578125 97.87725150100067  C 37.578125 98.55370246831222  38.020833333333336 98.83989326217477  38.90625 98.73582388258839  Z M 43.59375 98.18945963975983  C 44.427083333333336 97.98132088058705  44.791666666666664 97.6170780520347  44.6875 97.09673115410274  C 44.58333333333334 96.5243495663776  44.11458333333334 96.29019346230821  43.28125 96.39426284189459  C 42.447916666666664 96.55036691127418  42.083333333333336 96.94062708472315  42.1875 97.5650433622415  C 42.29166666666667 98.18945963975983  42.76041666666667 98.39759839893263  43.59375 98.18945963975983  Z " fill-rule="nonzero" fill="#223635" stroke="none" transform="matrix(1 0 0 1 416 1444 )" />
  </g>
</svg>